<?xml version="1.0" encoding="iso-8859-1"?>
<!-- Uploaded to: SVG Repo, www.svgrepo.com, Generator: SVG Repo Mixer Tools -->
<svg height="800px" width="800px" version="1.1" id="Capa_1" xmlns="http://www.w3.org/2000/svg" xmlns:xlink="http://www.w3.org/1999/xlink" 
	 viewBox="0 0 155.301 155.301" xml:space="preserve">
<g>
	<circle style="fill:#98E2ED;" cx="77.65" cy="77.65" r="77.65"/>
	<g>
		<path style="fill:#86542A;" d="M99.362,95.604c0,0,29.313-14.207,25.646-30.965c-3.668-16.758-25.422-13.74-32.196,9.164
			C86.039,96.707,99.362,95.604,99.362,95.604z"/>
		<g>
			<path style="fill:#CF7128;" d="M55.347,109.459c-1.392-3.123-2.172-6.58-2.172-10.221c0-5.709,1.905-10.971,5.111-15.193
				c-0.753-0.623-1.477-1.281-2.169-1.969c-3.101,2.77-7.7,9.102-9.637,23.02c-1.528,10.979,3.083,13.574,7.434,12.436
				C53.34,114.473,54.256,111.6,55.347,109.459z"/>
			<path style="fill:#CF7128;" d="M102.823,117.553c0.546,0.135,1.095,0.211,1.635,0.221c-0.54-0.016-1.087-0.1-1.63-0.242
				C102.827,117.537,102.825,117.545,102.823,117.553z"/>
			<path style="fill:#DB853A;" d="M55.347,109.459c-1.09,2.141-2.007,5.014-1.433,8.072c0.326,1.736,1.132,3.646,2.661,5.399
				c0,0-12.937-4.737-12.594,4.263h31.978l0.407-2.774C66.963,123.694,59.012,117.688,55.347,109.459z"/>
			<path style="fill:#DB853A;" d="M80.284,124.423l0.406,2.771h0.092l-0.454-2.717C80.313,124.477,80.298,124.421,80.284,124.423z"
				/>
			<path style="fill:#DB853A;" d="M106.54,121.797c-2.846-0.014-5.732,0.799-6.342,0.98c-0.011,0.014-0.02,0.025-0.031,0.039
				C100.167,122.816,103.366,121.803,106.54,121.797z"/>
			<path style="fill:#86542A;" d="M79.325,124.363c-0.018,0-0.035,0.002-0.053,0.002C79.29,124.365,79.308,124.363,79.325,124.363z"
				/>
			<path style="fill:#86542A;" d="M78.23,91.193c-0.065,1-1.399,2.97-3.049,3.007c-0.128,0.004-0.252,0.017-0.381,0.021
				c-1.688,0.043-3.082-1.248-3.162-2.936c-0.012-0.254-0.009-0.504-0.021-0.758c-4.993-1.082-9.539-3.343-13.338-6.485
				c-3.206,4.223-5.107,9.487-5.107,15.196c0,3.641,0.782,7.096,2.173,10.221c3.665,8.227,11.618,14.12,21.021,14.847
				c0.647,0.049,1.06,0.081,1.72,0.081c0.051,0-0.088-0.002-0.088-0.002V91.193C77.998,91.193,78.234,91.193,78.23,91.193z"/>
			<path style="fill:#DB853A;" d="M78.463,91.248c0.004,0,0.008,0,0.012,0v-0.111C78.475,91.174,78.464,91.211,78.463,91.248z"/>
			<path style="fill:#DB853A;" d="M85.761,29.221c0.294,0.072,0.589,0.143,0.881,0.221C86.35,29.361,86.055,29.293,85.761,29.221z"
				/>
			<path style="fill:#DB853A;" d="M102.098,33.91c-0.016,0-0.032-0.002-0.048-0.002c-1.445,0-2.737,0.641-3.62,1.646
				c0.008,0.01,0.018,0.014,0.026,0.021C99.33,34.566,100.66,33.924,102.098,33.91z"/>
			<path style="fill:#DB853A;" d="M71.631,90.531c-0.074-1.563-0.145-3.125-0.219-4.688c-3.606-1.291-6.163-3.566-6.701-6.234
				c-4.229-1.49-7.268-5.51-7.268-10.25c0-6.008,4.871-10.877,10.875-10.877c1.192,0,2.336,0.197,3.409,0.553
				c0.56-2.73,3.021-3.447,6.274-3.447c0.078,0-0.004,0.002-0.004,0.002V28.332c2,0.012,4.898,0.283,7.115,0.787
				c-2.26-0.516-4.492-0.791-6.907-0.791c-7.637,0-14.578,2.723-20.027,7.248c-0.883-1.019-2.154-1.668-3.609-1.668
				c-2.659,0-4.799,2.154-4.799,4.813c0,1.662,0.85,3.127,2.129,3.992c-3.187,4.92-5.04,10.779-5.04,17.076
				c0,8.709,3.54,16.59,9.255,22.287c0.693,0.688,1.417,1.346,2.17,1.969C62.084,87.188,66.639,89.449,71.631,90.531z
				 M64.535,49.924c0.431-2.162,2.53-3.564,4.689-3.135c2.161,0.43,3.563,2.529,3.135,4.689c-0.431,2.16-2.53,3.564-4.69,3.133
				C65.508,54.182,64.106,52.082,64.535,49.924z"/>
			<path style="fill:#DB853A;" d="M68.319,80.236c-1.266,0-2.477-0.229-3.607-0.627c0.538,2.668,3.095,4.943,6.701,6.234
				c-0.093-1.996-0.186-3.992-0.278-5.988C70.235,80.096,69.295,80.236,68.319,80.236z"/>
			<path style="opacity:0.3;fill:#86542A;" d="M68.319,80.236c-1.266,0-2.477-0.229-3.607-0.627
				c0.538,2.668,3.095,4.943,6.701,6.234c-0.093-1.996-0.186-3.992-0.278-5.988C70.235,80.096,69.295,80.236,68.319,80.236z"/>
			<path style="fill:#FFFFFF;" d="M77.998,90.721V74.252c0-0.15,0.075-0.295,0.005-0.449c-1.325,2.953-3.809,5.201-6.989,6.053
				c0.093,1.996,0.246,3.992,0.338,5.988c0.074,1.563,0.174,3.125,0.248,4.688c0.012,0.254,0.038,0.508,0.05,0.76
				c0.081,1.688,1.511,2.986,3.199,2.945c0.129-0.004,0.316-0.006,0.443-0.01c1.65-0.035,2.864-1.342,2.929-2.979
				c0.001-0.037-0.225-0.074-0.225-0.111C77.998,90.998,77.998,90.859,77.998,90.721z"/>
			<path style="fill:#86542A;" d="M71.134,79.855c3.179-0.852,5.544-3.1,6.869-6.053c0.069,0.154-0.005,0.299-0.005,0.449v-7.51
				c0,0.018,0.07,0.029,0.004,0.029c-1.238,0-6.505-2.967-6.505-6.625c0-0.406,0.102-0.771,0.171-1.111
				c-1.073-0.355-2.188-0.553-3.379-0.553c-6.005,0-10.86,4.869-10.86,10.877c0,4.74,3.045,8.76,7.275,10.25
				c1.131,0.398,2.345,0.627,3.612,0.627C69.291,80.236,70.235,80.096,71.134,79.855z M62.221,67.547
				c-0.38,0-0.688-0.309-0.688-0.688c0-0.381,0.308-0.688,0.688-0.688c0.38,0,0.688,0.307,0.688,0.688
				C62.909,67.238,62.601,67.547,62.221,67.547z M63.596,74.424c-0.38,0-0.688-0.309-0.688-0.688c0-0.381,0.307-0.688,0.688-0.688
				c0.38,0,0.688,0.307,0.688,0.688C64.284,74.115,63.977,74.424,63.596,74.424z M67.035,64.795c-0.38,0-0.688-0.307-0.688-0.688
				c0-0.379,0.308-0.688,0.688-0.688c0.38,0,0.688,0.309,0.688,0.688C67.723,64.488,67.415,64.795,67.035,64.795z M67.723,69.609
				c0-0.379,0.308-0.688,0.688-0.688c0.38,0,0.688,0.309,0.688,0.688c0,0.381-0.308,0.688-0.688,0.688
				C68.03,70.297,67.723,69.99,67.723,69.609z"/>
			<path style="fill:#353A42;" d="M78.002,66.771c0.065,0-0.004-0.012-0.004-0.029V55.59c0,0,0.082-0.002,0.004-0.002
				c-3.253,0-5.834,0.717-6.394,3.447c-0.069,0.34-0.171,0.705-0.171,1.111C71.437,63.805,76.764,66.771,78.002,66.771z"/>
			<path style="fill:#FFFFFF;" d="M67.668,54.611c2.161,0.432,4.259-0.973,4.69-3.133c0.429-2.16-0.974-4.26-3.135-4.689
				c-2.159-0.43-4.258,0.973-4.689,3.135C64.106,52.082,65.508,54.182,67.668,54.611z M65.977,50.209
				c0.27-1.363,1.597-2.25,2.959-1.979c1.366,0.271,2.252,1.598,1.981,2.961c-0.035,0.174-0.087,0.34-0.153,0.498
				c-0.317-0.426-0.815-0.754-1.529-0.896c-1.285-0.254-2.34,0.293-2.992,1.125C65.964,51.416,65.855,50.816,65.977,50.209z"/>
			<path style="fill:#353A42;" d="M69.235,50.793c0.713,0.143,1.211,0.471,1.529,0.896c0.066-0.158,0.118-0.324,0.153-0.498
				c0.271-1.363-0.615-2.689-1.981-2.961c-1.362-0.271-2.689,0.615-2.959,1.979c-0.122,0.607-0.013,1.207,0.266,1.709
				C66.895,51.086,67.95,50.539,69.235,50.793z"/>
			<circle style="fill:#CF7128;" cx="67.035" cy="64.107" r="0.688"/>
			<circle style="fill:#CF7128;" cx="62.221" cy="66.859" r="0.688"/>
			<circle style="fill:#CF7128;" cx="68.41" cy="69.609" r="0.688"/>
			<circle style="fill:#CF7128;" cx="63.596" cy="73.736" r="0.688"/>
			<path style="opacity:0.3;fill:#FFFFFF;" d="M79.325,124.363c0.326-0.014,0.64-0.031,0.958-0.055l-0.001-0.004
				C79.965,124.33,79.646,124.35,79.325,124.363z"/>
			<path style="opacity:0.3;fill:#FFFFFF;" d="M112.667,127.193h0.092c0.173-4-3.011-5.174-6.22-5.168
				C109.717,122.039,112.839,123.193,112.667,127.193z"/>
			<path style="opacity:0.3;fill:#FFFFFF;" d="M125.008,64.639c-1.892-8.645-8.597-12.012-15.575-10.117
				c-0.727-4.293-2.321-8.293-4.599-11.809c1.28-0.865,2.122-2.33,2.122-3.992c0-2.658-2.155-4.813-4.814-4.813
				c-0.015,0-0.029,0.002-0.044,0.002c2.636,0.025,4.765,2.168,4.765,4.811c0,1.662-0.841,3.127-2.121,3.992
				c3.186,4.92,5.044,10.779,5.044,17.076c0,8.709-3.539,16.59-9.255,22.287c3.101,2.77,7.701,9.102,9.637,23.02
				c1.326,9.529-1.972,12.74-5.711,12.678c3.776,0.117,7.141-3.07,5.804-12.678c-0.808-5.807-2.08-10.289-3.513-13.748
				C115.165,85.91,127.461,75.844,125.008,64.639z"/>
			<path style="opacity:0.3;fill:#FFFFFF;" d="M100.074,122.816c0,0,0.046-0.016,0.123-0.039c1.502-1.734,2.299-3.51,2.626-5.225
				c-0.029-0.008-0.059-0.014-0.088-0.021C102.409,119.268,101.604,121.063,100.074,122.816z"/>
			<path style="opacity:0.3;fill:#FFFFFF;" d="M98.431,35.555c-3.392-2.81-7.405-4.92-11.789-6.113
				c4.378,1.197,8.374,3.315,11.769,6.135C98.417,35.568,98.424,35.564,98.431,35.555z"/>
			<path style="opacity:0.3;fill:#FFFFFF;" d="M78.475,124.385c0.284-0.002,0.544-0.01,0.798-0.02
				C79.008,124.377,78.742,124.383,78.475,124.385L78.475,124.385z"/>
			<path style="opacity:0.3;fill:#FFFFFF;" d="M85.351,29.119c0.137,0.031,0.272,0.068,0.41,0.101
				C85.624,29.188,85.488,29.149,85.351,29.119z"/>
			<path style="fill:#CF7128;" d="M110.169,105.096c-1.937-13.918-6.536-20.25-9.637-23.02c-0.692,0.688-1.415,1.346-2.169,1.969
				c3.206,4.223,5.111,9.484,5.111,15.193c0,3.641-0.78,7.098-2.171,10.221c1.089,2.141,2.006,5.014,1.432,8.072
				c0.029,0.008,0.059,0.014,0.088,0.021c0.001-0.008,0.003-0.016,0.004-0.021c0.543,0.143,1.091,0.227,1.63,0.242
				C108.197,117.836,111.495,114.625,110.169,105.096z"/>
			<path style="opacity:0.3;fill:#FFFFFF;" d="M110.169,105.096c-1.937-13.918-6.536-20.25-9.637-23.02
				c-0.692,0.688-1.415,1.346-2.169,1.969c3.206,4.223,5.111,9.484,5.111,15.193c0,3.641-0.78,7.098-2.171,10.221
				c1.089,2.141,2.006,5.014,1.432,8.072c0.029,0.008,0.059,0.014,0.088,0.021c0.001-0.008,0.003-0.016,0.004-0.021
				c0.543,0.143,1.091,0.227,1.63,0.242C108.197,117.836,111.495,114.625,110.169,105.096z"/>
			<path style="fill:#DB853A;" d="M102.735,117.531c0.574-3.059-0.486-5.932-1.575-8.072c-3.666,8.229-12.163,14.121-21.163,14.846
				v-0.111c0,0,0.405,0,0.42,0l0.364,3h31.885c0.171-4-2.95-5.269-6.128-5.282c-3.174,0.006-6.373,0.962-6.373,0.962
				c0.011-0.014,0.02-0.055,0.031-0.066c-0.077,0.023-0.123,0.023-0.123,0.023C101.604,121.076,102.409,119.268,102.735,117.531z"/>
			<path style="opacity:0.3;fill:#FFFFFF;" d="M102.735,117.531c0.574-3.059-0.486-5.932-1.575-8.072
				c-3.666,8.229-12.163,14.121-21.163,14.846v-0.111c0,0,0.405,0,0.42,0l0.364,3h31.885c0.171-4-2.95-5.269-6.128-5.282
				c-3.174,0.006-6.373,0.962-6.373,0.962c0.011-0.014,0.02-0.055,0.031-0.066c-0.077,0.023-0.123,0.023-0.123,0.023
				C101.604,121.076,102.409,119.268,102.735,117.531z"/>
			<path style="fill:#86542A;" d="M101.303,109.459c1.392-3.123,2.171-6.58,2.171-10.221c0-5.709-1.906-10.971-5.111-15.193
				c-3.828,3.166-8.421,5.439-13.458,6.512c-0.005,0.107-0.01,0.213-0.015,0.32c-0.085,1.797-1.511,3.182-3.315,3.139
				c-1.618-0.039-3.063-1.221-3.291-2.77c-0.016,0-0.286,0.002-0.286,0.002v33.137c0-0.002,0.771-0.008,1.036-0.02
				c0.019,0,0.156-0.002,0.172-0.002c0.32-0.014,0.699-0.033,1.017-0.059C89.626,123.58,97.637,117.688,101.303,109.459z"/>
			<path style="opacity:0.3;fill:#FFFFFF;" d="M101.303,109.459c1.392-3.123,2.171-6.58,2.171-10.221
				c0-5.709-1.906-10.971-5.111-15.193c-3.828,3.166-8.421,5.439-13.458,6.512c-0.005,0.107-0.01,0.213-0.015,0.32
				c-0.085,1.797-1.511,3.182-3.315,3.139c-1.618-0.039-3.063-1.221-3.291-2.77c-0.016,0-0.286,0.002-0.286,0.002v33.137
				c0-0.002,0.771-0.008,1.036-0.02c0.019,0,0.156-0.002,0.172-0.002c0.32-0.014,0.699-0.033,1.017-0.059
				C89.626,123.58,97.637,117.688,101.303,109.459z"/>
			<path style="fill:#DB853A;" d="M78.475,91.137v0.111c0.016,0,0.032-0.002,0.048-0.002c-0.026-0.172-0.048-0.346-0.048-0.525
				C78.475,90.859,78.475,90.998,78.475,91.137z"/>
			<path style="opacity:0.3;fill:#FFFFFF;" d="M78.475,91.137v0.111c0.016,0,0.032-0.002,0.048-0.002
				c-0.026-0.172-0.048-0.346-0.048-0.525C78.475,90.859,78.475,90.998,78.475,91.137z"/>
			<path style="fill:#DB853A;" d="M77.998,55.59c3,0.035,5.971,0.781,6.518,3.445c1.072-0.355,2.335-0.553,3.527-0.553
				c6.007,0,10.936,4.869,10.936,10.877c0,4.738-3.008,8.76-7.238,10.25c-0.535,2.652-3.051,4.916-6.624,6.209
				c-0.076,1.58-0.146,3.16-0.22,4.738c5.037-1.072,9.634-3.346,13.462-6.512c0.753-0.623,1.478-1.281,2.17-1.969
				c5.716-5.697,9.255-13.578,9.255-22.287c0-6.297-1.857-12.156-5.044-17.076c1.28-0.865,2.121-2.33,2.121-3.992
				c0-2.642-2.129-4.785-4.765-4.811c-1.438,0.014-2.768,0.656-3.642,1.666c-0.008-0.008-0.018-0.012-0.026-0.021
				c-0.006,0.01-0.014,0.014-0.02,0.021c-3.395-2.82-7.391-4.937-11.769-6.135c-0.292-0.078-0.587-0.148-0.881-0.221
				c-0.137-0.033-0.511-0.07-0.648-0.101c-2.217-0.504-5.115-0.775-7.115-0.787V55.59z M87.425,46.789
				c2.159-0.43,4.258,0.973,4.689,3.135c0.429,2.158-0.973,4.258-3.134,4.688c-2.161,0.432-4.259-0.973-4.69-3.133
				C83.862,49.318,85.264,47.219,87.425,46.789z"/>
			<path style="opacity:0.3;fill:#FFFFFF;" d="M77.998,55.59c3,0.035,5.971,0.781,6.518,3.445c1.072-0.355,2.335-0.553,3.527-0.553
				c6.007,0,10.936,4.869,10.936,10.877c0,4.738-3.008,8.76-7.238,10.25c-0.535,2.652-3.051,4.916-6.624,6.209
				c-0.076,1.58-0.146,3.16-0.22,4.738c5.037-1.072,9.634-3.346,13.462-6.512c0.753-0.623,1.478-1.281,2.17-1.969
				c5.716-5.697,9.255-13.578,9.255-22.287c0-6.297-1.857-12.156-5.044-17.076c1.28-0.865,2.121-2.33,2.121-3.992
				c0-2.642-2.129-4.785-4.765-4.811c-1.438,0.014-2.768,0.656-3.642,1.666c-0.008-0.008-0.018-0.012-0.026-0.021
				c-0.006,0.01-0.014,0.014-0.02,0.021c-3.395-2.82-7.391-4.937-11.769-6.135c-0.292-0.078-0.587-0.148-0.881-0.221
				c-0.137-0.033-0.511-0.07-0.648-0.101c-2.217-0.504-5.115-0.775-7.115-0.787V55.59z M87.425,46.789
				c2.159-0.43,4.258,0.973,4.689,3.135c0.429,2.158-0.973,4.258-3.134,4.688c-2.161,0.432-4.259-0.973-4.69-3.133
				C83.862,49.318,85.264,47.219,87.425,46.789z"/>
			<path style="fill:#DB853A;" d="M85.42,79.873c-0.097,1.982-0.191,3.963-0.287,5.945c3.573-1.293,6.103-3.557,6.639-6.209
				c-1.131,0.398-2.343,0.627-3.61,0.627C87.213,80.236,86.298,80.1,85.42,79.873z"/>
			<path style="opacity:0.3;fill:#86542A;" d="M85.42,79.873c-0.097,1.982-0.191,3.963-0.287,5.945
				c3.573-1.293,6.103-3.557,6.639-6.209c-1.131,0.398-2.343,0.627-3.61,0.627C87.213,80.236,86.298,80.1,85.42,79.873z"/>
			<path style="opacity:0.3;fill:#FFFFFF;" d="M85.42,79.873c-0.097,1.982-0.191,3.963-0.287,5.945
				c3.573-1.293,6.103-3.557,6.639-6.209c-1.131,0.398-2.343,0.627-3.61,0.627C87.213,80.236,86.298,80.1,85.42,79.873z"/>
			<path style="fill:#FFFFFF;" d="M85.181,79.873c-3.044-0.791-6.183-2.873-7.183-5.621v16.469c0,0.18,0.26,0.354,0.286,0.525
				c0.229,1.549,1.554,2.73,3.172,2.77c1.803,0.043,3.289-1.342,3.373-3.139c0.005-0.107,0.04-0.213,0.046-0.32
				c0.074-1.578,0.048-3.158,0.124-4.738C85.095,83.836,85.085,81.855,85.181,79.873z"/>
			<path style="opacity:0.3;fill:#FFFFFF;" d="M85.181,79.873c-3.044-0.791-6.183-2.873-7.183-5.621v16.469
				c0,0.18,0.26,0.354,0.286,0.525c0.229,1.549,1.554,2.73,3.172,2.77c1.803,0.043,3.289-1.342,3.373-3.139
				c0.005-0.107,0.04-0.213,0.046-0.32c0.074-1.578,0.048-3.158,0.124-4.738C85.095,83.836,85.085,81.855,85.181,79.873z"/>
			<path style="fill:#86542A;" d="M77.998,66.742v7.51c1,2.748,4.139,4.83,7.183,5.621c0.879,0.227,1.913,0.363,2.862,0.363
				c1.267,0,2.538-0.229,3.669-0.627c4.23-1.49,7.297-5.512,7.297-10.25c0-6.008-4.856-10.877-10.861-10.877
				c-1.192,0-2.328,0.197-3.401,0.553c0.07,0.34-0.122,0.705-0.122,1.111C84.624,63.611,78.998,66.453,77.998,66.742z
				 M94.542,67.547c0.38,0,0.688,0.309,0.688,0.688c0,0.381-0.307,0.688-0.688,0.688c-0.38,0-0.688-0.307-0.688-0.688
				C93.855,67.855,94.163,67.547,94.542,67.547z M90.417,73.736c0.38,0,0.688,0.307,0.688,0.688c0,0.381-0.308,0.688-0.688,0.688
				c-0.38,0-0.688-0.307-0.688-0.688C89.729,74.043,90.036,73.736,90.417,73.736z M89.041,62.732c0.38,0,0.687,0.309,0.687,0.688
				c0,0.381-0.308,0.688-0.687,0.688c-0.38,0-0.688-0.307-0.688-0.688C88.354,63.041,88.661,62.732,89.041,62.732z M85.603,69.609
				c0,0.381-0.308,0.688-0.687,0.688c-0.38,0-0.688-0.307-0.688-0.688c0-0.379,0.308-0.688,0.688-0.688
				C85.295,68.922,85.603,69.23,85.603,69.609z"/>
			<path style="opacity:0.3;fill:#FFFFFF;" d="M77.998,66.742v7.51c1,2.748,4.139,4.83,7.183,5.621
				c0.879,0.227,1.913,0.363,2.862,0.363c1.267,0,2.538-0.229,3.669-0.627c4.23-1.49,7.297-5.512,7.297-10.25
				c0-6.008-4.856-10.877-10.861-10.877c-1.192,0-2.328,0.197-3.401,0.553c0.07,0.34-0.122,0.705-0.122,1.111
				C84.624,63.611,78.998,66.453,77.998,66.742z M94.542,67.547c0.38,0,0.688,0.309,0.688,0.688c0,0.381-0.307,0.688-0.688,0.688
				c-0.38,0-0.688-0.307-0.688-0.688C93.855,67.855,94.163,67.547,94.542,67.547z M90.417,73.736c0.38,0,0.688,0.307,0.688,0.688
				c0,0.381-0.308,0.688-0.688,0.688c-0.38,0-0.688-0.307-0.688-0.688C89.729,74.043,90.036,73.736,90.417,73.736z M89.041,62.732
				c0.38,0,0.687,0.309,0.687,0.688c0,0.381-0.308,0.688-0.687,0.688c-0.38,0-0.688-0.307-0.688-0.688
				C88.354,63.041,88.661,62.732,89.041,62.732z M85.603,69.609c0,0.381-0.308,0.688-0.687,0.688c-0.38,0-0.688-0.307-0.688-0.688
				c0-0.379,0.308-0.688,0.688-0.688C85.295,68.922,85.603,69.23,85.603,69.609z"/>
			<path style="fill:#353A42;" d="M84.628,60.146c0-0.406-0.162-0.771-0.232-1.111c-0.547-2.664-3.398-3.41-6.398-3.445v11.152
				C78.998,66.453,84.628,63.611,84.628,60.146z"/>
			<path style="opacity:0.3;fill:#FFFFFF;" d="M84.628,60.146c0-0.406-0.162-0.771-0.232-1.111c-0.547-2.664-3.398-3.41-6.398-3.445
				v11.152C78.998,66.453,84.628,63.611,84.628,60.146z"/>
			<path style="fill:#FFFFFF;" d="M88.98,54.611c2.161-0.43,3.563-2.529,3.134-4.688c-0.431-2.162-2.53-3.564-4.689-3.135
				c-2.161,0.43-3.563,2.529-3.134,4.689C84.722,53.639,86.82,55.043,88.98,54.611z M87.712,48.23
				c1.363-0.271,2.689,0.615,2.959,1.979c0.123,0.607,0.013,1.207-0.266,1.709c-0.652-0.832-1.707-1.379-2.991-1.125
				c-0.714,0.143-1.211,0.471-1.529,0.896c-0.066-0.158-0.118-0.324-0.153-0.498C85.46,49.828,86.347,48.502,87.712,48.23z"/>
			<path style="opacity:0.3;fill:#FFFFFF;" d="M88.98,54.611c2.161-0.43,3.563-2.529,3.134-4.688
				c-0.431-2.162-2.53-3.564-4.689-3.135c-2.161,0.43-3.563,2.529-3.134,4.689C84.722,53.639,86.82,55.043,88.98,54.611z
				 M87.712,48.23c1.363-0.271,2.689,0.615,2.959,1.979c0.123,0.607,0.013,1.207-0.266,1.709c-0.652-0.832-1.707-1.379-2.991-1.125
				c-0.714,0.143-1.211,0.471-1.529,0.896c-0.066-0.158-0.118-0.324-0.153-0.498C85.46,49.828,86.347,48.502,87.712,48.23z"/>
			<path style="fill:#353A42;" d="M85.885,51.689c0.318-0.426,0.815-0.754,1.529-0.896c1.284-0.254,2.339,0.293,2.991,1.125
				c0.279-0.502,0.389-1.102,0.266-1.709c-0.27-1.363-1.597-2.25-2.959-1.979c-1.366,0.271-2.253,1.598-1.98,2.961
				C85.767,51.365,85.819,51.531,85.885,51.689z"/>
			<path style="opacity:0.3;fill:#FFFFFF;" d="M85.885,51.689c0.318-0.426,0.815-0.754,1.529-0.896
				c1.284-0.254,2.339,0.293,2.991,1.125c0.279-0.502,0.389-1.102,0.266-1.709c-0.27-1.363-1.597-2.25-2.959-1.979
				c-1.366,0.271-2.253,1.598-1.98,2.961C85.767,51.365,85.819,51.531,85.885,51.689z"/>
			<circle style="fill:#CF7128;" cx="89.041" cy="63.42" r="0.688"/>
			<circle style="opacity:0.3;fill:#FFFFFF;" cx="89.041" cy="63.42" r="0.688"/>
			<circle style="fill:#CF7128;" cx="94.542" cy="68.234" r="0.688"/>
			<circle style="opacity:0.3;fill:#FFFFFF;" cx="94.542" cy="68.234" r="0.688"/>
			<circle style="fill:#CF7128;" cx="84.915" cy="69.609" r="0.688"/>
			<circle style="opacity:0.3;fill:#FFFFFF;" cx="84.915" cy="69.609" r="0.688"/>
			<circle style="fill:#CF7128;" cx="90.417" cy="74.424" r="0.688"/>
			<circle style="opacity:0.3;fill:#FFFFFF;" cx="90.417" cy="74.424" r="0.688"/>
		</g>
	</g>
</g>
</svg>